PathFileType	4	(X/Y/Z)	output.trc
DataRate	CameraRate	NumFrames	NumMarkers	Units	OrigDataRate	OrigDataStartFrame	OrigNumFrames
100	100	13	23	m	100	1312	3498
Frame#	Time	C7			T8			EL			EM			US			RS			AA			Fore_Clus_1			Fore_Clus_2			Fore_Clus_3			Fore_Clus_4			Hum_Clus_1			Hum_Clus_2			Hum_Clus_3			Hum_Clus_4			Thor_Clus_1			Thor_Clus_2			Thor_Clus_3			Thor_Clus_4			IJ			PX			GH			Thor_Clus_5		
		X1	Y1	Z1	X2	Y2	Z2	X3	Y3	Z3	X4	Y4	Z4	X5	Y5	Z5	X6	Y6	Z6	X7	Y7	Z7	X8	Y8	Z8	X9	Y9	Z9	X10	Y10	Z10	X11	Y11	Z11	X12	Y12	Z12	X13	Y13	Z13	X14	Y14	Z14	X15	Y15	Z15	X16	Y16	Z16	X17	Y17	Z17	X18	Y18	Z18	X19	Y19	Z19	X20	Y20	Z20	X21	Y21	Z21	X22	Y22	Z22	X23	Y23	Z23
1311	13.110000	-0.051089	1.470316	-0.129462	-0.080731	1.235679	-0.153994	-0.263300	1.196148	0.239405	-0.243767	1.145270	0.203340	-0.065435	1.123957	0.395971	-0.027977	1.121723	0.356980	-0.176797	1.385996	0.034521	-0.114974	1.173761	0.364569	-0.071408	1.160171	0.394253	-0.055714	1.168625	0.368845	-0.088921	1.184801	0.329899	-0.224323	1.284296	0.195267	-0.267453	1.272622	0.154864	-0.257187	1.320165	0.114005	-0.208221	1.334544	0.143200	0.085687	1.373252	-0.014253	0.055162	1.327584	0.049474	0.050775	1.372176	0.013106	0.105924	1.329175	0.009764	0.020893	1.382624	-0.043793	0.054818	1.172306	0.013217	-0.149312	1.352649	-0.000558	0.046201	1.347130	0.038714
1312	13.120000	-0.051267	1.470254	-0.129528	-0.080818	1.235603	-0.154041	-0.262936	1.192857	0.237385	-0.242284	1.142498	0.201215	-0.066345	1.122866	0.396497	-0.027884	1.124105	0.358451	-0.176972	1.385904	0.034442	-0.117594	1.171685	0.366019	-0.073887	1.158892	0.396325	-0.057392	1.165485	0.375141	-0.091487	1.183049	0.331308	-0.225020	1.281873	0.194135	-0.267531	1.269671	0.153162	-0.257534	1.317531	0.112653	-0.209115	1.332634	0.142405	0.085536	1.373249	-0.014313	0.055032	1.327602	0.049419	0.050669	1.372202	0.013044	0.105792	1.329177	0.009732	0.020733	1.382598	-0.043837	0.054726	1.172299	0.013201	-0.149145	1.352500	-0.000593	0.046027	1.347114	0.038683
1313	13.130000	-0.051443	1.470181	-0.129604	-0.080885	1.235514	-0.154093	-0.262478	1.189546	0.235342	-0.240746	1.139728	0.199057	-0.067241	1.121631	0.396941	-0.027991	1.126327	0.359986	-0.177153	1.385799	0.034345	-0.120157	1.169310	0.367327	-0.076738	1.157327	0.398020	-0.060007	1.166367	0.377154	-0.093679	1.183843	0.333976	-0.225530	1.279348	0.192964	-0.267480	1.266703	0.151537	-0.257847	1.315038	0.111234	-0.209973	1.330710	0.141664	0.085434	1.373290	-0.014305	0.054893	1.327609	0.049376	0.050515	1.372156	0.013009	0.105667	1.329196	0.009723	0.020573	1.382568	-0.043882	0.054644	1.172292	0.013192	-0.148986	1.352350	-0.000629	0.045876	1.347115	0.038632
1314	13.140000	-0.051619	1.470106	-0.129680	-0.080941	1.235422	-0.154145	-0.261924	1.186221	0.233279	-0.239154	1.136964	0.196864	-0.068114	1.120256	0.397292	-0.028290	1.128371	0.361563	-0.177337	1.385686	0.034243	-0.122763	1.166737	0.368487	-0.079157	1.155324	0.399363	-0.062766	1.165848	0.379616	-0.096158	1.183787	0.336335	-0.226004	1.276856	0.191794	-0.267303	1.263839	0.149882	-0.258026	1.312622	0.110024	-0.210729	1.328664	0.141006	0.085282	1.373278	-0.014331	0.054731	1.327612	0.049343	0.050238	1.372177	0.012924	0.105527	1.329211	0.009702	0.020414	1.382539	-0.043925	0.054568	1.172287	0.013189	-0.148835	1.352203	-0.000663	0.045703	1.347110	0.038601
1315	13.150000	-0.051793	1.470013	-0.129769	-0.080977	1.235308	-0.154198	-0.261272	1.182884	0.231194	-0.237505	1.134208	0.194635	-0.068960	1.118745	0.397541	-0.028775	1.130217	0.363163	-0.177526	1.385557	0.034124	-0.125038	1.163681	0.369275	-0.082241	1.153160	0.401020	-0.065865	1.165417	0.381909	-0.098750	1.183501	0.338663	-0.226408	1.274382	0.190644	-0.267086	1.260927	0.148262	-0.258399	1.310217	0.109005	-0.211390	1.326758	0.140239	0.085119	1.373284	-0.014361	0.054579	1.327612	0.049332	0.049954	1.372103	0.012893	0.105358	1.329236	0.009712	0.020255	1.382503	-0.043970	0.054504	1.172282	0.013199	-0.148693	1.352065	-0.000693	0.045535	1.347105	0.038564
1316	13.160000	-0.051973	1.469920	-0.129852	-0.081010	1.235193	-0.154245	-0.260523	1.179537	0.229085	-0.235800	1.131461	0.192365	-0.069768	1.117100	0.397675	-0.029430	1.131856	0.364758	-0.177716	1.385422	0.034012	-0.127284	1.160295	0.369824	-0.084530	1.150576	0.402001	-0.068750	1.164210	0.383845	-0.101326	1.182754	0.340782	-0.226563	1.271757	0.189494	-0.266823	1.258118	0.146702	-0.258611	1.307937	0.107900	-0.211954	1.324704	0.139539	0.084979	1.373339	-0.014342	0.054413	1.327641	0.049330	0.049756	1.372141	0.012893	0.105212	1.329266	0.009714	0.020096	1.382469	-0.044009	0.054447	1.172279	0.013214	-0.148558	1.351939	-0.000717	0.045373	1.347110	0.038552
1317	13.170000	-0.052157	1.469816	-0.129938	-0.081034	1.235065	-0.154284	-0.259674	1.176179	0.226950	-0.234033	1.128725	0.190051	-0.070531	1.115326	0.397684	-0.030245	1.133274	0.366328	-0.177908	1.385278	0.033899	-0.129439	1.156799	0.370216	-0.086786	1.147831	0.403005	-0.071080	1.162825	0.385776	-0.103740	1.181577	0.342735	-0.226689	1.269160	0.188231	-0.266422	1.255319	0.145181	-0.258509	1.305663	0.106473	-0.212391	1.322688	0.138943	0.084792	1.373354	-0.014392	0.054272	1.327648	0.049335	0.049526	1.372111	0.012868	0.105083	1.329345	0.009742	0.019935	1.382433	-0.044046	0.054400	1.172279	0.013241	-0.148430	1.351830	-0.000733	0.045204	1.347104	0.038527
1318	13.180000	-0.052349	1.469706	-0.130020	-0.081055	1.234928	-0.154314	-0.258727	1.172811	0.224783	-0.232204	1.126000	0.187689	-0.071241	1.113425	0.397558	-0.031202	1.134460	0.367847	-0.178101	1.385125	0.033794	-0.131279	1.153240	0.370465	-0.089018	1.144609	0.403575	-0.073576	1.161249	0.387489	-0.106198	1.180063	0.344343	-0.226652	1.266615	0.187059	-0.265968	1.252540	0.143627	-0.258531	1.303117	0.105354	-0.212801	1.320587	0.138285	0.084650	1.373387	-0.014375	0.054129	1.327663	0.049346	0.049443	1.372187	0.012893	0.104949	1.329394	0.009767	0.019772	1.382395	-0.044078	0.054361	1.172281	0.013278	-0.148309	1.351741	-0.000738	0.045058	1.347101	0.038517
1319	13.190000	-0.052552	1.469599	-0.130086	-0.081084	1.234794	-0.154329	-0.257686	1.169434	0.222581	-0.230309	1.123286	0.185276	-0.071890	1.111404	0.397286	-0.032285	1.135410	0.369295	-0.178293	1.384970	0.033712	-0.133213	1.149333	0.370042	-0.091058	1.141410	0.403953	-0.075958	1.158993	0.388870	-0.108866	1.178329	0.345833	-0.226671	1.263900	0.185942	-0.265592	1.249772	0.142137	-0.258521	1.300830	0.104354	-0.213143	1.318566	0.137547	0.084518	1.373416	-0.014369	0.053980	1.327673	0.049376	0.049312	1.372189	0.012928	0.104802	1.329436	0.009772	0.019606	1.382362	-0.044101	0.054327	1.172286	0.013320	-0.148192	1.351674	-0.000729	0.044910	1.347091	0.038489
1320	13.200000	-0.052763	1.469483	-0.130150	-0.081110	1.234649	-0.154332	-0.256550	1.166048	0.220340	-0.228344	1.120586	0.182811	-0.072472	1.109265	0.396863	-0.033478	1.136112	0.370652	-0.178487	1.384806	0.033637	-0.134826	1.145564	0.369800	-0.092982	1.138033	0.404118	-0.078318	1.157169	0.390154	-0.111446	1.176475	0.347094	-0.226569	1.261311	0.184757	-0.264895	1.246991	0.140540	-0.258375	1.298463	0.103203	-0.213479	1.316468	0.136845	0.084386	1.373453	-0.014352	0.053830	1.327676	0.049387	0.049162	1.372194	0.012927	0.104632	1.329486	0.009802	0.019436	1.382325	-0.044119	0.054301	1.172293	0.013373	-0.148080	1.351631	-0.000705	0.044746	1.347091	0.038504
1321	13.210000	-0.052988	1.469377	-0.130191	-0.081151	1.234516	-0.154320	-0.255326	1.162655	0.218055	-0.226310	1.117902	0.180292	-0.072977	1.107017	0.396284	-0.034761	1.136566	0.371899	-0.178677	1.384645	0.033593	-0.136275	1.141528	0.369178	-0.094718	1.134606	0.404160	-0.080637	1.154717	0.391136	-0.113779	1.174268	0.348128	-0.226361	1.258685	0.183434	-0.264321	1.244201	0.138916	-0.258156	1.296085	0.102091	-0.213734	1.314369	0.136156	0.084231	1.373476	-0.014341	0.053623	1.327659	0.049466	0.048977	1.372185	0.012935	0.104503	1.329478	0.009886	0.019262	1.382296	-0.044124	0.054276	1.172304	0.013426	-0.147968	1.351610	-0.000664	0.044563	1.347097	0.038524
1322	13.220000	-0.053222	1.469272	-0.130218	-0.081198	1.234383	-0.154295	-0.254016	1.159257	0.215725	-0.224205	1.115236	0.177721	-0.073401	1.104667	0.395549	-0.036116	1.136772	0.373023	-0.178868	1.384480	0.033569	-0.137568	1.137434	0.368419	-0.096475	1.130997	0.403986	-0.083103	1.152438	0.392003	-0.116380	1.171806	0.349152	-0.226031	1.255926	0.182133	-0.263650	1.241403	0.137339	-0.257898	1.293631	0.100909	-0.213892	1.312245	0.135501	0.084020	1.373473	-0.014342	0.053449	1.327677	0.049512	0.048815	1.372206	0.012940	0.104325	1.329480	0.009897	0.019084	1.382268	-0.044121	0.054254	1.172318	0.013484	-0.147857	1.351612	-0.000604	0.044360	1.347118	0.038497
1323	13.230000	-0.053466	1.469173	-0.130229	-0.081254	1.234257	-0.154260	-0.252625	1.155859	0.213346	-0.222030	1.112593	0.175100	-0.073739	1.102227	0.394662	-0.037524	1.136732	0.374016	-0.179058	1.384316	0.033566	-0.138706	1.133278	0.367495	-0.098141	1.127282	0.403599	-0.085523	1.149862	0.392840	-0.118613	1.169064	0.349823	-0.225688	1.253251	0.180871	-0.262890	1.238672	0.135741	-0.257581	1.291222	0.099768	-0.213988	1.310114	0.134821	0.083856	1.373504	-0.014339	0.053267	1.327696	0.049563	0.048644	1.372215	0.012958	0.104129	1.329548	0.009930	0.018902	1.382244	-0.044108	0.054234	1.172333	0.013542	-0.147747	1.351632	-0.000526	0.044185	1.347114	0.038542
